<?xml version="1.0" encoding="UTF-8" standalone="no"?>
<svg
   viewBox="0 0 792 792"
   version="1.1"
   id="svg3"
   sodipodi:docname="Muxio logo.svg"
   inkscape:version="1.4 (e7c3feb1, 2024-10-09)"
   xmlns:inkscape="http://www.inkscape.org/namespaces/inkscape"
   xmlns:sodipodi="http://sodipodi.sourceforge.net/DTD/sodipodi-0.dtd"
   xmlns="http://www.w3.org/2000/svg"
   xmlns:svg="http://www.w3.org/2000/svg">
  <defs
     id="defs3" />
  <sodipodi:namedview
     id="namedview3"
     pagecolor="#ffffff"
     bordercolor="#000000"
     borderopacity="0.25"
     inkscape:showpageshadow="2"
     inkscape:pageopacity="0.0"
     inkscape:pagecheckerboard="0"
     inkscape:deskcolor="#d1d1d1"
     inkscape:zoom="1.8016938"
     inkscape:cx="327.19211"
     inkscape:cy="586.67017"
     inkscape:window-width="2320"
     inkscape:window-height="1503"
     inkscape:window-x="1273"
     inkscape:window-y="232"
     inkscape:window-maximized="0"
     inkscape:current-layer="svg3"
     showgrid="true">
    <inkscape:grid
       id="grid65"
       units="px"
       originx="0"
       originy="0"
       spacingx="1"
       spacingy="1"
       empcolor="#0099e5"
       empopacity="0.30196078"
       color="#0099e5"
       opacity="0.14901961"
       empspacing="5"
       enabled="true"
       visible="true" />
  </sodipodi:namedview>
  <path
     style="display:inline;fill:#777777;fill-opacity:1"
     d="m 381.31,4.75 c -5.501,15.35 -22.563,50.694 -29.794,61.72 -8.878,13.536 -24.418,42.961 -23.287,44.092 0.278,0.278 2.659,0.023 5.291,-0.566 17.69,-3.965 25.48,5.912 25.48,32.307 0,24.901 -7.456,47.864 -23.185,71.402 -2.648,3.963 -4.44035,7.81142 -4.815,8.241 -0.88305,1.01252 -1.09623,1.25559 -2,2.286 -0.85518,0.97501 -1.63256,1.88666 -2,2.407 -1.22646,1.73682 -19.148,19.526 -27.129,24.994 -22.113,15.152 -57.999,26.856 -92.047,30.02 -8.144,0.757 -14.687,-1.288 -17.453,-5.455 -1.922,-2.896 -2.543,-13.294 -1.102,-18.448 1.06,-3.791 0.535,-3.659 -14.036,3.541 -21.364,10.555 -74.42,46.671 -74.191,50.502 0.265,4.41 48.282,33.579 70.151,42.615 3.3275,1.06084 10.07001,6.13357 9.85398,0.55731 -0.0497,-1.28352 -0.31293,-2.55231 0.21507,-5.71531 0.527,-3.163 0.984,-6.312 1.015,-7 0.36469,-0.72704 0.36015,-1.68297 0.72028,-2.41228 0.45165,-1.62972 3.93372,-5.76372 8.02872,-8.47372 3.22,-2.131 6.936,-2.957 24.14,-5.368 65.571,-9.19 103.15,-25.306 136.36,-58.481 12.409,-12.396 26.04362,-34.68944 27.00059,-38.27037 0.12451,-0.46589 0.68691,-1.56469 1.48806,-3.14651 1.56993,-3.09976 1.71644,-2.90392 1.65705,-3 -0.12237,-0.19795 1.25389,-2.9491 1.3283,-3.09812 0.60931,-1.22025 3.45773,-7.81581 3.61277,-8.75 -0.036,-0.963 1.73323,-6.475 3.69223,-12.25 4.423,-13.04 8.001,-29.939 10.717,-50.611 4.638,-35.306 9.787,-41.528 30.978,-37.432 2.475,0.478 4.704,0.667 4.954,0.419 1.007,-0.999 -15.881,-32.459 -23.138,-43.104 C 406.268,57.2 387.807,18.417 386.469,10.822 385.252,3.916 382.69,0.9 381.31,4.75"
     id="path1"
     sodipodi:nodetypes="ccscscssscccccccscscscsssssccccsscc" />
  <path
     style="display:inline;fill:#777777;fill-opacity:1"
     d="m 627.957,462.25 c -2.393,9.076 -9.964,18.177 -17.342,20.845 -4.655,1.683 -4.571,3.17 0.304,5.369 7.399,3.336 14.002,11.288 16.594,19.984 1.607,5.389 3.155,5.514 4.513,0.367 2.405,-9.121 11.802,-20.231 18.193,-21.509 3.793,-0.758 3.496,-1.68 -1.228,-3.81 -7.25,-3.269 -14.556,-12.441 -16.925,-21.246 -0.629,-2.337 -1.558,-4.25 -2.066,-4.25 -0.508,0 -1.427,1.913 -2.043,4.25"
     id="path41" />
  <path
     style="display:inline;fill:#777777;fill-opacity:1"
     d="m 531,359.576 c -30.784,5.581 -46.223,11.303 -65.768,24.377 -35.95,24.046 -60.396,67.487 -68.4,121.547 -1.712,11.564 -1.508,46.406 0.328,56 l 1.34,7 5.5,0.319 c 16.039,0.931 46.594,-6.299 78.767,-18.639 35.885,-13.764 77.858,-48.82 103.183,-86.18 13.883,-20.48 32.603,-58.363 31.257,-63.25 -0.114,-0.413 0.27,-0.75 0.852,-0.75 0.582,0 0.843,-0.349 0.58,-0.776 -0.264,-0.427 0.344,-3.239 1.351,-6.25 2.012,-6.018 7.309,-29.009 6.8,-29.518 -0.176,-0.175 -7.896,3.474 -17.156,8.109 -26.092,13.061 -49.425,19.258 -58.76,15.606 -4.893,-1.914 -7.217,-8.824 -6.645,-19.759 l 0.492,-9.412 -3.11,0.108 c -1.711,0.06 -6.486,0.72 -10.611,1.468"
     id="path31" />
  <path
     style="display:inline;fill:#777774;fill-opacity:1"
     d="m 324,334.175 c -31.289,11.817 -66.461,19.35 -102.784,22.014 -14.055,1.031 -16.199,1.407 -15.666,2.752 12.234,30.894 -13.796,34.911 -63.906,9.864 -6.521,-3.26 -11.96,-5.787 -12.088,-5.616 -0.6,0.805 5.82,26.519 9.065,36.311 15.576,46.994 34.429,75.422 73.879,111.4 12.863,11.731 36.987,27.724 53,35.137 3.85,1.782 7.796,3.637 8.768,4.121 8.169,4.072 49.085,15.822 50.426,14.481 0.239,-0.239 -1.114,-3.518 -3.007,-7.287 -22.047,-43.898 -24.44,-122.709 -5.532,-182.16 3.916,-12.311 11.435,-29.2 17.783,-39.942 3.681,-6.228 3.701,-6.226 -9.938,-1.075"
     id="path30" />
  <path
     style="display:inline;fill:#777777;fill-opacity:1"
     d="m 570.011,255.25 c 0.006,0.688 0.681,3.459 1.5,6.159 5.015,16.533 -0.862,24.232 -19.203,25.158 -4.844,0.244 -17.863,0.903 -28.93,1.464 -76.778,3.891 -127.985,23.85 -155.747,60.705 -37.337,49.568 -47.137,145.514 -20.706,202.724 7.555,16.352 23.14958,40.32313 26.58058,39.23513 2.60849,2.51653 2.00818,0.85859 2.04442,-0.91213 0.0273,-1.33191 -4.49156,-16.50575 -5.02,-18.951 -8.915,-39.196 -6.086,-86.925 7.488,-126.332 2.14721,-4.78765 3.42868,-10.81817 5.39376,-15.63876 0.15069,-0.36966 2.31644,-6.39727 2.78624,-6.86124 0.624,0 0.837,-0.298 0.473,-0.662 -0.364,-0.364 0.987,-3.627 3.002,-7.25 18.892,-33.966 50.222,-59.705 87.003,-71.475 30.37,-9.72 76.238,-13.958 87.759,-8.11 7.933,4.026 10.433,13.707 6.171,23.901 -2.252,5.385 -1.902,5.425 9.137,1.033 C 605.645,349.131 661,316.743 661,311.894 c 0,-4.611 -79.386,-55.168 -86.707,-55.219 -0.664,-0.005 -1.437,-0.608 -1.719,-1.342 -0.647,-1.686 -2.578,-1.749 -2.563,-0.083"
     id="path29"
     sodipodi:nodetypes="cscccccsccssscccccsccc" />
  <path
     style="display:inline;fill:#777774;fill-opacity:1"
     d="m 129.058,117.758 c -2.513,10.474 -9.214,18.671 -17.649,21.589 -5.282,1.827 -5.518,4.004 -0.594,5.479 3.671,1.1 13.307,8.505 12.999,9.99 -0.078,0.376 1.053,3.159 2.512,6.184 1.46,3.025 2.666,6.4 2.68,7.5 0.066,5.326 3.315,5.646 4.358,0.429 1.872,-9.361 10.497,-20.332 18.787,-23.899 5.832,-2.508 6.025,-3.359 1.099,-4.845 -8.171,-2.465 -15.638,-10.416 -18.935,-20.165 -2.711,-8.013 -3.768,-8.468 -5.257,-2.262"
     id="path6" />
  <path
     style="display:inline;fill:#777774;fill-opacity:1"
     d="m 442,68.332 c 0,0.257 2.916,6.457 6.48,13.779 8.951,18.39 10.622,23.605 11.182,34.889 0.748,15.085 -3.032,18.891 -19.16,19.292 l -8.361,0.208 -0.542,8 c -0.298,4.4 -0.78,14.975 -1.07,23.5 -0.291,8.525 -0.956,17.075 -1.479,19 -0.523,1.925 -1.169,5.3 -1.435,7.5 -1.187,9.812 -2.749,17.594 -4.315,21.5 -0.331,0.825 -0.717,2.047 -0.858,2.716 -3.378,16.079 -18.909,45.32 -33.359,62.807 -2.213,2.678 -3.915,4.978 -3.783,5.111 0.133,0.133 4.058,-1.127 8.721,-2.8 36.621,-13.134 82.748,-19.795 137.288,-19.824 9.795,-0.006 17.581,-0.379 17.302,-0.83 -0.279,-0.451 -0.716,-1.914 -0.972,-3.25 -0.256,-1.337 -0.944,-4.455 -1.528,-6.93 -7.594,-32.176 16.277,-32.942 64.895,-2.084 l 10.571,6.709 -0.895,-5.063 c -0.492,-2.784 -1.296,-5.843 -1.788,-6.798 -0.492,-0.955 -0.894,-2.793 -0.894,-4.084 0,-1.291 -0.312,-2.658 -0.692,-3.039 -0.381,-0.381 -0.832,-1.601 -1.001,-2.712 -1.797,-11.775 -25.8,-60.582 -34.247,-69.637 -1.133,-1.215 -2.06,-2.64 -2.06,-3.167 0,-0.527 -0.337,-1.108 -0.75,-1.292 -0.75,-0.333 -14.931,-17.494 -18.804,-22.756 -3.547,-4.819 -20.351,-20.817 -28.446,-27.08 -2.475,-1.915 -4.65,-3.823 -4.833,-4.24 -0.184,-0.416 -0.971,-0.757 -1.75,-0.757 -0.78,0 -1.417,-0.429 -1.417,-0.953 0,-0.524 -1.514,-1.672 -3.365,-2.55 -1.851,-0.878 -4.307,-2.474 -5.458,-3.547 C 514.026,98.878 512.866,98 512.6,98 512.334,98 507.927,95.446 502.808,92.324 487.757,83.147 467.423,74.439 451.842,70.498 448.354,69.616 444.712,68.663 443.75,68.38 442.788,68.097 442,68.075 442,68.332"
     id="path5" />
  <path
     style="display:inline;fill:#777774;fill-opacity:1"
     d="m 315,69.588 c -50.851,13.468 -98.703,46.771 -132.066,91.912 -2.439,3.3 -4.772,6.15 -5.184,6.333 -0.412,0.184 -0.75,0.741 -0.75,1.239 0,0.498 -0.788,1.81 -1.75,2.916 -4.289,4.928 -15.705,25.61 -21.81,39.512 -4.475,10.189 -12.028,33.603 -13.948,43.236 l -0.645,3.235 11.827,-7.582 c 45.955,-29.464 70.288,-28.358 62.942,2.861 -0.965,4.1 -1.032,5.75 -0.235,5.75 11.169,-0.002 38.393,-7.413 53.519,-14.568 42.769,-20.233 71.046,-62.068 71.094,-105.182 L 338,134 h -11.032 c -18.144,0 -21.468,-2.455 -21.468,-15.858 0,-10.687 2.078,-17.368 11.32,-36.393 7.279,-14.985 7.339,-14.586 -1.82,-12.161"
     id="path4" />
  <path
     fill="#f54314"
     stroke="#f54314"
     d="m 312.5,71.613 c -68.297,18.719 -129.515,74.457 -158.956,144.728 -4.891,11.674 -13.086,36.451 -12.311,37.225 0.26,0.26 5.223,-2.435 11.029,-5.989 33.832,-20.714 56.28,-25.492 62.103,-13.22 1.874,3.949 2.147,13.26 0.557,18.987 -1.339,4.82 -2.085,4.576 9.078,2.975 39.326,-5.639 77.82,-29.846 96.118,-60.445 4.144,-6.929 10.847,-21.936 11.334,-25.374 0.156,-1.1 0.528,-2.675 0.827,-3.5 1.126,-3.108 2.891,-14.543 3.584,-23.22 l 0.719,-8.997 -6.756,0.666 c -9.128,0.899 -18.234,-0.948 -22.218,-4.508 -7.072,-6.319 -4.233,-25.34 7.194,-48.191 3.782,-7.562 6.837,-13.717 6.787,-13.677 -0.049,0.041 -4.139,1.184 -9.089,2.54 m 137.288,9.529 c 8.414,17.273 10.359,23.678 10.886,35.858 0.693,15.986 -2.425,19.426 -18.745,20.685 -9.521,0.734 -8.615,-1.475 -9.349,22.815 -1.434,47.435 -12.954,82.873 -37.601,115.668 l -5.763,7.668 4.34,-1.86 c 23.995,-10.285 72.337,-17.558 123.98,-18.652 l 29.036,-0.615 -1.854,-7.105 c -9.252,-35.449 15.991,-38.023 65.71,-6.7 7.865,4.954 9.251,5.54 8.842,3.736 -1.292,-5.696 -4.716,-16.986 -7.472,-24.64 -1.683,-4.675 -3.759,-10.525 -4.611,-13 -4.233,-12.285 -19.516,-38.642 -32.169,-55.476 C 546.627,121.751 513.351,95.802 471.125,78.507 462.253,74.873 447.258,70 444.95,70 c -0.324,0 1.853,5.014 4.838,11.142 m -196.307,63.009 c -1.337,6.212 -6.246,15.639 -10.628,20.41 -3.959,4.312 -14.288,10.436 -17.603,10.438 C 224.563,175 224,175.45 224,176 c 0,0.55 0.693,1 1.54,1 8.529,0 21.806,14.526 26.435,28.922 2.7,8.399 3.185,8.621 4.72,2.161 3.066,-12.909 12.978,-25.892 22.555,-29.544 5.997,-2.286 5.947,-2.675 -0.689,-5.425 -10.472,-4.341 -17.595,-12.629 -21.153,-24.614 -2.272,-7.653 -3.034,-8.497 -3.927,-4.349 m 237.491,4.435 c -1.61,4.877 -6.426,10.135 -10.002,10.921 -4.097,0.9 -4.602,2.303 -1.28,3.558 4.387,1.658 8.345,5.937 11.038,11.935 l 2.47,5.5 1.869,-4.919 c 2.111,-5.558 7.003,-11.131 10.553,-12.022 3.296,-0.827 2.974,-2.278 -0.87,-3.922 -4.226,-1.808 -8.182,-6.188 -9.834,-10.887 -1.644,-4.678 -2.444,-4.711 -3.944,-0.164 m -4.513,3.481 c -0.363,0.586 -0.445,1.281 -0.183,1.543 0.262,0.262 0.743,-0.218 1.069,-1.067 0.676,-1.762 0.1,-2.072 -0.886,-0.476 M 238.872,165.75 c -1.243,1.586 -1.208,1.621 0.378,0.378 1.666,-1.307 2.195,-2.128 1.372,-2.128 -0.207,0 -0.995,0.787 -1.75,1.75 m 245.36,3.25 c 0.687,1.1 1.661,2 2.164,2 0.502,0 0.099,-0.9 -0.896,-2 -0.995,-1.1 -1.969,-2 -2.163,-2 -0.195,0 0.208,0.9 0.895,2 M 499,171.059 c 0,0.582 0.45,0.781 1,0.441 0.55,-0.34 1,-0.816 1,-1.059 0,-0.243 -0.45,-0.441 -1,-0.441 -0.55,0 -1,0.477 -1,1.059 m -218.267,1.065 c 0.679,0.684 1.486,0.991 1.793,0.683 0.308,-0.308 -0.247,-0.867 -1.233,-1.243 -1.425,-0.542 -1.54,-0.428 -0.56,0.56 m -55.92,0.559 c 0.721,0.289 1.584,0.253 1.916,-0.079 0.332,-0.332 -0.258,-0.568 -1.312,-0.525 -1.165,0.048 -1.402,0.285 -0.604,0.604 m 37.532,24.86 c -0.326,0.849 -0.369,1.767 -0.096,2.04 0.274,0.273 0.737,-0.422 1.03,-1.543 0.624,-2.383 -0.069,-2.751 -0.934,-0.497 m -2.721,5.996 c -0.965,2.514 -0.681,3.163 0.498,1.136 0.584,-1.004 0.851,-2.036 0.593,-2.293 -0.257,-0.258 -0.749,0.263 -1.091,1.157 m 212.915,1.281 c -1.41,6.422 -8.691,13.185 -16.789,15.596 -2.159,0.643 -2.317,2.584 -0.21,2.584 5.008,0 14.005,7.448 16.989,14.064 2.094,4.643 3.02,4.934 3.774,1.186 1.387,-6.903 11.491,-15.25 18.46,-15.25 3.619,0 2.197,-2.142 -2.315,-3.487 -8.723,-2.6 -14.598,-7.687 -16.322,-14.133 -1.015,-3.795 -2.814,-4.076 -3.587,-0.56 m 5.461,1.121 c 0,0.518 0.445,1.216 0.989,1.552 0.566,0.35 0.734,-0.051 0.393,-0.941 C 478.717,204.82 478,204.503 478,205.941 M 488,227 c -4.511,2.469 -3.743,2.484 2.5,0.046 2.75,-1.074 4.1,-1.955 3,-1.957 -1.1,-0.003 -3.575,0.857 -5.5,1.911 m -7.128,5.75 c -1.243,1.586 -1.208,1.621 0.378,0.378 0.962,-0.755 1.75,-1.543 1.75,-1.75 0,-0.823 -0.821,-0.294 -2.128,1.372 m -149.88,100.227 c -2.178,1.208 -28.038,9.719 -38.34,12.618 -20.884,5.878 -50.138,10.654 -73.424,11.988 -11.887,0.681 -12.251,0.769 -11.596,2.81 5.395,16.803 0.949,25.083 -13.99,26.06 -11.417,0.747 -32.945,-5.859 -53.37,-16.375 -8.19,-4.217 -9.177,-4.517 -8.776,-2.665 5.665,26.141 9.924,38.862 20.452,61.087 3.387,7.15 6.095,13.175 6.019,13.388 -0.076,0.214 0.26,0.664 0.746,1 0.486,0.337 3.435,5.001 6.554,10.365 25.37,43.635 72.733,81.944 125.233,101.292 11.314,4.17 30.074,9.215 30.962,8.326 0.324,-0.323 -0.373,-2.789 -1.548,-5.479 -20.68,-47.357 -23.584,-116.127 -7.367,-174.462 4.024,-14.476 8.356,-25.904 14.537,-38.345 6.168,-12.418 6.351,-12.963 3.908,-11.608 m 198.983,27.989 c -61.319,11.445 -99.504,42.954 -120.425,99.371 -11.308,30.494 -16.255,74.099 -11.364,100.163 l 1.314,7 4.24,0.307 c 6.1,0.442 24.947,-2.35 38.818,-5.75 88.349,-21.655 157.069,-91.539 179.491,-182.532 1.623,-6.586 2.951,-12.312 2.951,-12.725 0,-0.412 -6.187,2.352 -13.75,6.141 -26.694,13.378 -52.32,19.561 -61.804,14.914 -5.754,-2.819 -6.946,-5.896 -6.946,-17.93 0,-9.087 -0.252,-10.91 -1.5,-10.831 -0.825,0.052 -5.786,0.894 -11.025,1.872 m -274.87,31.653 c -1.664,6.167 -7.212,12.71 -11.855,13.981 -3.061,0.839 -2.826,1.919 0.739,3.396 4.318,1.788 9.715,8.21 11.093,13.197 l 1.189,4.307 1.403,-4.115 c 1.758,-5.158 7.293,-11.715 11.286,-13.368 3.688,-1.528 3.862,-2.594 0.559,-3.423 -3.849,-0.966 -9.133,-6.934 -11.319,-12.786 l -1.983,-5.308 -1.112,4.119 m 4.895,1.023 c 0,0.537 0.7,1.849 1.555,2.917 1.467,1.83 1.487,1.798 0.365,-0.559 -1.458,-3.061 -1.92,-3.628 -1.92,-2.358 M 512.645,409 c -0.269,0.825 -1.261,3.975 -2.204,7 -3.752,12.037 -11.27,20.443 -21.261,23.773 l -5.671,1.891 6.602,3.15 c 9.2,4.391 20.684,18.329 20.934,25.407 0.025,0.704 0.621,2.629 1.325,4.279 l 1.281,3 2.158,-7 c 4.162,-13.494 11.145,-22.029 22.037,-26.933 l 4.293,-1.933 -6.32,-2.865 c -10.235,-4.64 -18.08,-14.206 -20.31,-24.769 -1.046,-4.956 -2.213,-6.994 -2.864,-5 m -3.566,3.583 c 0.048,1.165 0.285,1.402 0.604,0.605 0.289,-0.722 0.253,-1.585 -0.079,-1.917 -0.332,-0.332 -0.568,0.258 -0.525,1.312 m -260.993,3.035 c 1.328,1.715 2.615,2.939 2.861,2.72 0.246,-0.219 -0.841,-1.622 -2.414,-3.118 l -2.861,-2.72 2.414,3.118 m 257.478,6.089 c -0.542,1.425 -0.428,1.54 0.56,0.56 0.684,-0.679 0.991,-1.486 0.683,-1.793 -0.308,-0.308 -0.867,0.247 -1.243,1.233 M 526.5,431 c 0.995,1.1 2.035,2 2.31,2 0.275,0 -0.315,-0.9 -1.31,-2 -0.995,-1.1 -2.035,-2 -2.31,-2 -0.275,0 0.315,0.9 1.31,2 m -27.628,0.75 c -1.243,1.586 -1.208,1.621 0.378,0.378 0.962,-0.755 1.75,-1.543 1.75,-1.75 0,-0.823 -0.821,-0.294 -2.128,1.372 M 537.5,446 c -0.34,0.55 -0.141,1 0.441,1 0.582,0 1.059,-0.45 1.059,-1 0,-0.55 -0.198,-1 -0.441,-1 -0.243,0 -0.719,0.45 -1.059,1 M 230,449.54 c 0,4.94 -6.167,12.378 -12.433,14.997 l -3.906,1.632 3.928,1.758 c 4.987,2.233 9.974,7.884 11.524,13.056 1.428,4.764 2.49,5.103 3.374,1.075 1.041,-4.737 6.181,-10.923 11.037,-13.282 5.543,-2.693 5.538,-2.722 -0.819,-5.776 -4.566,-2.193 -5.573,-3.259 -8.205,-8.685 -2.972,-6.126 -4.5,-7.748 -4.5,-4.775 M 503,459 c 0.589,1.1 1.295,2 1.57,2 0.275,0 0.019,-0.9 -0.57,-2 -0.589,-1.1 -1.295,-2 -1.57,-2 -0.275,0 -0.019,0.9 0.57,2 m -258,11 c -0.825,0.533 -1.05,0.969 -0.5,0.969 0.55,0 1.675,-0.436 2.5,-0.969 0.825,-0.533 1.05,-0.969 0.5,-0.969 -0.55,0 -1.675,0.436 -2.5,0.969 m -23.5,3 c 0.995,1.1 2.035,2 2.31,2 0.275,0 -0.315,-0.9 -1.31,-2 -0.995,-1.1 -2.035,-2 -2.31,-2 -0.275,0 0.315,0.9 1.31,2 m 287.586,-0.5 c 0.104,1.894 1.77,5.084 1.828,3.5 0.031,-0.825 -0.381,-2.175 -0.914,-3 -0.533,-0.825 -0.945,-1.05 -0.914,-0.5 m -54.024,11.152 c -2.54,5.884 -5.034,8.535 -10.56,11.223 l -3.884,1.889 4.204,2.145 c 4.634,2.364 9.687,8.58 10.691,13.149 0.884,4.028 1.946,3.689 3.374,-1.075 1.46,-4.873 6.033,-10.293 10.108,-11.981 3.842,-1.591 3.779,-2.262 -0.396,-4.253 -4.036,-1.925 -8.07,-6.925 -9.954,-12.34 l -1.36,-3.909 -2.223,5.152"
     fill-rule="evenodd"
     id="path3"
     style="display:inline" />
  <path
     d="m 218.24645,745.72322 h -29.46384 v -86.06768 l -21.28801,55.85335 h -20.43958 l -21.28801,-55.85335 v 86.06768 H 97.845771 v -128.5404 h 34.400199 l 25.8387,64.48601 25.76158,-64.48601 h 34.4002 z m 129.88772,-46.53007 q 0,23.82615 -12.95792,36.51618 -12.95792,12.69002 -38.17959,12.69002 -25.22166,0 -38.17958,-12.69002 -12.8808,-12.69003 -12.8808,-36.42985 v -82.09666 h 29.77237 v 80.19746 q 0,13.38064 5.01348,19.94147 5.01348,6.56083 16.27453,6.56083 11.10679,0 16.1974,-6.30185 5.16774,-6.30185 5.16774,-20.20045 v -80.19746 h 29.77237 z m 131.816,46.53007 h -34.24593 l -24.75889,-42.30007 -25.22167,42.30007 h -32.70331 l 40.72488,-64.745 -39.87645,-63.7954 h 34.1688 l 23.91045,40.05557 24.60462,-40.05557 h 32.78045 l -40.10785,62.5005 z m 78.59596,0 h -67.25778 v -22.79023 h 18.81984 v -82.95993 h -18.81984 v -22.79024 h 67.25778 v 22.79024 h -18.81984 v 82.95993 h 18.81984 z m 135.82673,-64.22703 q 0,30.73228 -15.73462,48.86089 -15.73461,18.04227 -43.50159,18.04227 -27.68983,0 -43.42446,-18.04227 -15.73462,-18.12861 -15.73462,-48.86089 0,-30.99128 15.73462,-48.94723 15.73463,-18.04227 43.42446,-18.04227 27.61272,0 43.42446,18.04227 15.81175,17.95595 15.81175,48.94723 z m -39.25942,32.54515 q 4.31931,-5.87022 6.40183,-13.81227 2.08253,-8.02838 2.08253,-18.81921 0,-11.56778 -2.39105,-19.68248 -2.39104,-8.11471 -6.24756,-13.12166 -3.93366,-5.1796 -9.1014,-7.51041 -5.09061,-2.33083 -10.64401,-2.33083 -5.63053,0 -10.644,2.2445 -4.93635,2.24448 -9.1014,7.42409 -3.85652,4.83429 -6.32469,13.38064 -2.39106,8.46001 -2.39106,19.68248 0,11.48144 2.31392,19.59615 2.39105,8.02838 6.24757,13.12165 3.85652,5.09327 9.02426,7.51042 5.16774,2.41714 10.8754,2.41714 5.70765,0 10.8754,-2.41714 5.16774,-2.50348 9.02426,-7.68307 z"
     id="text65"
     style="font-weight:bold;font-size:167.115px;font-family:'.Al Nile PUA';-inkscape-font-specification:'.Al Nile PUA, Bold';display:inline;fill:#777777;fill-opacity:1;stroke-width:0"
     aria-label="MUXIO" />
</svg>
